HIERARCHY
ROOT Hips
{
	OFFSET 0.000000 121.760803 0.000000
	CHANNELS 6 Xposition Yposition Zposition Xrotation Yrotation Zrotation 
	JOINT Spine
	{
		OFFSET 0.072000 7.257294 -0.789700
		CHANNELS 3 Xrotation Yrotation Zrotation
		JOINT Spine1
		{
			OFFSET 0.000000 12.508769 -0.658067
			CHANNELS 3 Xrotation Yrotation Zrotation
			JOINT Spine1_split
			{
				OFFSET 0.000000 12.508769 -0.658067
				CHANNELS 3 Xrotation Yrotation Zrotation
				JOINT Spine2
				{
					OFFSET 0.000000 12.508769 -0.658067
					CHANNELS 3 Xrotation Yrotation Zrotation
					JOINT Neck
					{
						OFFSET 0.000000 14.033295 7.520400
						CHANNELS 3 Xrotation Yrotation Zrotation
						JOINT Head
						{
							OFFSET 0.000000 8.198502 5.703100
							CHANNELS 3 Xrotation Yrotation Zrotation
							JOINT HeadTop_End
							{
								OFFSET 0.000000 17.760803 13.332701
								CHANNELS 3 Xrotation Yrotation Zrotation
								End Site
								{
									OFFSET 0.000000 0.000000 0.000000
								}
							}
						}
					}
					JOINT LeftShoulder
					{
						OFFSET 6.292450 5.785301 -0.669000
						CHANNELS 3 Xrotation Yrotation Zrotation
						JOINT LeftShoulder_split
						{
							OFFSET 6.292450 5.785301 -0.669000
							CHANNELS 3 Xrotation Yrotation Zrotation
							JOINT LeftArm
							{
								OFFSET 13.907140 -6.093903 1.965100
								CHANNELS 3 Xrotation Yrotation Zrotation
								JOINT LeftForeArm
								{
									OFFSET 34.140198 0.000000 0.000000
									CHANNELS 3 Xrotation Yrotation Zrotation
									JOINT LeftHand
									{
										OFFSET 40.960209 0.000000 0.000000
										CHANNELS 3 Xrotation Yrotation Zrotation
										JOINT LeftHandThumb1
										{
											OFFSET 10.006996 -7.170425 9.573125
											CHANNELS 3 Xrotation Yrotation Zrotation
											JOINT LeftHandThumb2
											{
												OFFSET 1.835007 -1.059448 1.059443
												CHANNELS 3 Xrotation Yrotation Zrotation
												JOINT LeftHandThumb3
												{
													OFFSET 2.112267 -1.219513 1.219518
													CHANNELS 3 Xrotation Yrotation Zrotation
													JOINT LeftHandThumb4
													{
														OFFSET 4.843811 -2.796570 2.796576
														CHANNELS 3 Xrotation Yrotation Zrotation
														End Site
														{
															OFFSET 0.000000 0.000000 0.000000
														}
													}
												}
											}
										}
										JOINT LeftHandIndex1
										{
											OFFSET 18.389847 -0.922348 4.596882
											CHANNELS 3 Xrotation Yrotation Zrotation
											JOINT LeftHandIndex2
											{
												OFFSET 4.711273 0.000000 0.000000
												CHANNELS 3 Xrotation Yrotation Zrotation
												JOINT LeftHandIndex3
												{
													OFFSET 2.886131 0.000000 0.000000
													CHANNELS 3 Xrotation Yrotation Zrotation
													JOINT LeftHandIndex4
													{
														OFFSET 6.145912 0.000000 0.000000
														CHANNELS 3 Xrotation Yrotation Zrotation
														End Site
														{
															OFFSET 0.000000 0.000000 0.000000
														}
													}
												}
											}
										}
										JOINT LeftHandMiddle1
										{
											OFFSET 18.013008 0.000000 0.000000
											CHANNELS 3 Xrotation Yrotation Zrotation
											JOINT LeftHandMiddle2
											{
												OFFSET 4.946693 0.000000 0.000000
												CHANNELS 3 Xrotation Yrotation Zrotation
												JOINT LeftHandMiddle3
												{
													OFFSET 3.342232 0.000000 0.000000
													CHANNELS 3 Xrotation Yrotation Zrotation
													JOINT LeftHandMiddle4
													{
														OFFSET 4.461754 0.000000 0.000000
														CHANNELS 3 Xrotation Yrotation Zrotation
														End Site
														{
															OFFSET 0.000000 0.000000 0.000000
														}
													}
												}
											}
										}
										JOINT LeftHandRing1
										{
											OFFSET 15.849892 -0.102921 -4.126150
											CHANNELS 3 Xrotation Yrotation Zrotation
											JOINT LeftHandRing2
											{
												OFFSET 3.527054 0.000000 0.000000
												CHANNELS 3 Xrotation Yrotation Zrotation
												JOINT LeftHandRing3
												{
													OFFSET 2.961098 0.000000 0.000000
													CHANNELS 3 Xrotation Yrotation Zrotation
													JOINT LeftHandRing4
													{
														OFFSET 4.927200 0.000000 0.000000
														CHANNELS 3 Xrotation Yrotation Zrotation
														End Site
														{
															OFFSET 0.000000 0.000000 0.000000
														}
													}
												}
											}
										}
										JOINT LeftHandPinky1
										{
											OFFSET 12.791824 -0.832031 -6.799156
											CHANNELS 3 Xrotation Yrotation Zrotation
											JOINT LeftHandPinky2
											{
												OFFSET 3.327133 0.000000 0.000000
												CHANNELS 3 Xrotation Yrotation Zrotation
												JOINT LeftHandPinky3
												{
													OFFSET 3.014900 0.000000 0.000000
													CHANNELS 3 Xrotation Yrotation Zrotation
													JOINT LeftHandPinky4
													{
														OFFSET 5.847786 0.000000 0.000000
														CHANNELS 3 Xrotation Yrotation Zrotation
														End Site
														{
															OFFSET 0.000000 0.000000 0.000000
														}
													}
												}
											}
										}
									}
								}
							}
						}
					}
					JOINT RightShoulder
					{
						OFFSET -6.292450 5.785301 -0.669000
						CHANNELS 3 Xrotation Yrotation Zrotation
						JOINT RightShoulder_split
						{
							OFFSET -6.292450 5.785301 -0.669000
							CHANNELS 3 Xrotation Yrotation Zrotation
							JOINT RightArm
							{
								OFFSET -13.907140 -6.093903 1.965100
								CHANNELS 3 Xrotation Yrotation Zrotation
								JOINT RightForeArm
								{
									OFFSET -34.140198 0.000000 0.000000
									CHANNELS 3 Xrotation Yrotation Zrotation
									JOINT RightHand
									{
										OFFSET -40.960209 0.000000 0.000000
										CHANNELS 3 Xrotation Yrotation Zrotation
										JOINT RightHandThumb1
										{
											OFFSET -10.007050 -7.170456 9.573117
											CHANNELS 3 Xrotation Yrotation Zrotation
											JOINT RightHandThumb2
											{
												OFFSET -1.835007 -1.059448 1.059443
												CHANNELS 3 Xrotation Yrotation Zrotation
												JOINT RightHandThumb3
												{
													OFFSET -2.112267 -1.219513 1.219518
													CHANNELS 3 Xrotation Yrotation Zrotation
													JOINT RightHandThumb4
													{
														OFFSET -4.843834 -2.796585 2.796590
														CHANNELS 3 Xrotation Yrotation Zrotation
														End Site
														{
															OFFSET 0.000000 0.000000 0.000000
														}
													}
												}
											}
										}
										JOINT RightHandIndex1
										{
											OFFSET -18.389870 -0.922424 4.596786
											CHANNELS 3 Xrotation Yrotation Zrotation
											JOINT RightHandIndex2
											{
												OFFSET -4.711273 0.000000 0.000000
												CHANNELS 3 Xrotation Yrotation Zrotation
												JOINT RightHandIndex3
												{
													OFFSET -2.886131 0.000000 0.000000
													CHANNELS 3 Xrotation Yrotation Zrotation
													JOINT RightHandIndex4
													{
														OFFSET -6.145920 0.000000 0.000000
														CHANNELS 3 Xrotation Yrotation Zrotation
														End Site
														{
															OFFSET 0.000000 0.000000 0.000000
														}
													}
												}
											}
										}
										JOINT RightHandMiddle1
										{
											OFFSET -18.013008 0.000000 0.000000
											CHANNELS 3 Xrotation Yrotation Zrotation
											JOINT RightHandMiddle2
											{
												OFFSET -4.946693 0.000000 0.000000
												CHANNELS 3 Xrotation Yrotation Zrotation
												JOINT RightHandMiddle3
												{
													OFFSET -3.342232 0.000000 0.000000
													CHANNELS 3 Xrotation Yrotation Zrotation
													JOINT RightHandMiddle4
													{
														OFFSET -4.461754 0.000000 0.000000
														CHANNELS 3 Xrotation Yrotation Zrotation
														End Site
														{
															OFFSET 0.000000 0.000000 0.000000
														}
													}
												}
											}
										}
										JOINT RightHandRing1
										{
											OFFSET -15.849876 -0.102936 -4.126237
											CHANNELS 3 Xrotation Yrotation Zrotation
											JOINT RightHandRing2
											{
												OFFSET -3.527054 0.000000 0.000000
												CHANNELS 3 Xrotation Yrotation Zrotation
												JOINT RightHandRing3
												{
													OFFSET -2.961098 0.000000 0.000000
													CHANNELS 3 Xrotation Yrotation Zrotation
													JOINT RightHandRing4
													{
														OFFSET -4.927200 0.000000 0.000000
														CHANNELS 3 Xrotation Yrotation Zrotation
														End Site
														{
															OFFSET 0.000000 0.000000 0.000000
														}
													}
												}
											}
										}
										JOINT RightHandPinky1
										{
											OFFSET -12.791786 -0.832077 -6.799222
											CHANNELS 3 Xrotation Yrotation Zrotation
											JOINT RightHandPinky2
											{
												OFFSET -3.327133 0.000000 0.000000
												CHANNELS 3 Xrotation Yrotation Zrotation
												JOINT RightHandPinky3
												{
													OFFSET -3.014900 0.000000 0.000000
													CHANNELS 3 Xrotation Yrotation Zrotation
													JOINT RightHandPinky4
													{
														OFFSET -5.847786 0.000000 0.000000
														CHANNELS 3 Xrotation Yrotation Zrotation
														End Site
														{
															OFFSET 0.000000 0.000000 0.000000
														}
													}
												}
											}
										}
									}
								}
							}
						}
					}
				}
			}
		}
	}
	JOINT LeftUpLeg
	{
		OFFSET 13.026900 -6.336304 -1.092800
		CHANNELS 3 Xrotation Yrotation Zrotation
		JOINT LeftLeg
		{
			OFFSET 0.524474 -46.096886 9.782700
			CHANNELS 3 Xrotation Yrotation Zrotation
			JOINT LeftFoot
			{
				OFFSET -0.524474 -53.427422 -12.948200
				CHANNELS 3 Xrotation Yrotation Zrotation
				JOINT LeftToeBase
				{
					OFFSET 0.192200 -14.009700 16.364100
					CHANNELS 3 Xrotation Yrotation Zrotation
					JOINT LeftToe_End
					{
						OFFSET -1.784700 -0.561700 9.474800
						CHANNELS 3 Xrotation Yrotation Zrotation
						End Site
						{
							OFFSET 0.000000 0.000000 0.000000
						}
					}
				}
			}
		}
	}
	JOINT RightUpLeg
	{
		OFFSET -12.883000 -6.336304 -1.092800
		CHANNELS 3 Xrotation Yrotation Zrotation
		JOINT RightLeg
		{
			OFFSET -0.524587 -46.096825 9.782800
			CHANNELS 3 Xrotation Yrotation Zrotation
			JOINT RightFoot
			{
				OFFSET 0.524587 -53.427383 -12.948300
				CHANNELS 3 Xrotation Yrotation Zrotation
				JOINT RightToeBase
				{
					OFFSET -0.192200 -14.009700 16.364100
					CHANNELS 3 Xrotation Yrotation Zrotation
					JOINT RightToe_End
					{
						OFFSET 1.784700 -0.561700 9.474800
						CHANNELS 3 Xrotation Yrotation Zrotation
						End Site
						{
							OFFSET 0.000000 0.000000 0.000000
						}
					}
				}
			}
		}
	}
}
MOTION
Frames: 4
Frame Time: 0.016667
-0.079145 113.878883 1.215105 -0.587378 -0.363524 -0.336978 0.361305 -0.185860 0.288972 -1.750144 -0.199001 0.196420 0.000000 0.000000 0.000000 -1.750109 -0.188404 0.203701 -0.289762 -0.205837 -0.385588 4.702786 -2.136756 3.065841 -0.000000 0.000000 -0.000000 0.993404 -13.202432 -11.017497 0.000000 0.000000 0.000000 16.778887 -19.384207 -67.597371 0.000005 -17.727278 0.000001 -41.262225 6.787877 3.627184 -5.917884 16.359053 4.033989 -3.203470 11.997059 3.444664 -3.261094 13.950631 3.246350 0.000001 -0.000002 -0.000001 0.260631 1.880088 -15.783539 0.260636 1.880093 -15.783608 0.260630 1.880086 -15.783522 -0.000000 0.000000 0.000001 0.523426 2.637843 -22.443074 0.524902 2.641403 -22.475105 0.524163 2.639623 -22.459100 0.000000 -0.000000 -0.000000 0.898044 3.405135 -29.540978 0.898045 3.405136 -29.540978 0.898045 3.405137 -29.540964 -0.000000 0.000000 0.000000 2.843607 6.562540 -31.481892 1.050196 -0.422459 -32.253615 1.038114 3.640773 -31.820082 0.000000 0.000000 -0.000000 1.651817 9.058839 10.503891 0.000000 0.000000 0.000000 6.412939 25.534621 64.587519 -0.000010 12.370154 -0.000006 -21.507969 -14.216155 -3.290112 7.843968 -10.746960 2.716267 0.430931 -17.559395 -11.584000 6.895768 -19.300991 -4.640274 -0.000000 -0.000000 0.000000 0.528292 -2.663082 22.437136 0.528298 -2.663085 22.437137 0.528294 -2.663088 22.437115 0.000000 -0.000003 -0.000002 1.160564 -3.851144 33.530129 1.160564 -3.851145 33.530102 1.160567 -3.851142 33.530102 -0.000000 -0.000001 0.000000 1.843399 -4.719921 42.648439 1.843406 -4.719927 42.648432 1.843404 -4.719922 42.648425 -0.000001 -0.000001 -0.000001 1.994906 -4.878712 44.459115 1.994908 -4.878720 44.459119 1.994910 -4.878714 44.459115 0.000000 0.000001 -0.000004 -11.995123 4.821516 8.374437 25.062488 4.234331 1.507004 -11.794227 1.178847 -9.448173 -0.000001 -0.000002 0.000002 0.000000 -0.000000 -0.000000 -11.379538 1.494388 -2.282998 25.568064 -1.412102 -2.390416 -13.467142 -1.050749 5.532411 -0.000107 -0.000001 -0.000001 0.000000 0.000000 0.000000 
-0.052253 113.893036 1.198945 -0.575610 -0.345467 -0.300960 0.375087 -0.164926 0.266973 -1.755795 -0.176235 0.190827 0.000000 0.000000 0.000000 -1.755715 -0.166635 0.197366 -0.262667 -0.209938 -0.406779 4.752853 -2.162300 3.061369 -0.000000 0.000000 0.000000 0.994041 -13.267617 -11.041540 0.000000 0.000000 0.000000 16.766347 -19.385890 -67.571314 0.000003 -17.712808 0.000008 -41.267118 6.584306 3.801920 -5.917878 16.359054 4.033979 -3.203477 11.997059 3.444692 -3.261090 13.950631 3.246330 0.000001 0.000002 0.000000 0.260631 1.880087 -15.783538 0.260635 1.880094 -15.783609 0.260631 1.880084 -15.783503 -0.000000 -0.000000 -0.000002 0.523425 2.637841 -22.443080 0.524901 2.641405 -22.475113 0.524163 2.639622 -22.459088 -0.000000 -0.000000 0.000000 0.898044 3.405137 -29.541012 0.898043 3.405137 -29.540957 0.898047 3.405137 -29.540985 0.000000 0.000000 0.000000 2.843607 6.562539 -31.481913 1.050196 -0.422459 -32.253615 1.038113 3.640773 -31.820079 -0.000000 0.000000 0.000000 1.651097 9.037777 10.513389 0.000000 0.000000 0.000000 6.473512 25.519863 64.541435 0.000010 12.373795 -0.000007 -21.518690 -14.342743 -3.277699 7.843968 -10.746966 2.716248 0.430931 -17.559388 -11.583992 6.895767 -19.300984 -4.640276 -0.000001 0.000002 0.000000 0.528292 -2.663083 22.437129 0.528296 -2.663081 22.437142 0.528294 -2.663091 22.437113 0.000000 -0.000002 -0.000002 1.160562 -3.851144 33.530106 1.160565 -3.851150 33.530095 1.160565 -3.851146 33.530102 0.000000 -0.000001 -0.000000 1.843399 -4.719924 42.648435 1.843401 -4.719920 42.648429 1.843403 -4.719921 42.648432 0.000001 -0.000004 0.000003 1.994906 -4.878712 44.459105 1.994906 -4.878711 44.459146 1.994906 -4.878723 44.459101 -0.000000 -0.000001 0.000001 -12.003475 4.862977 8.299800 25.022408 4.197990 1.549808 -11.766556 1.176047 -9.460847 -0.000029 0.000002 0.000033 0.000000 0.000001 -0.000000 -11.389813 1.466848 -2.366187 25.550614 -1.420594 -2.351083 -13.447717 -1.047667 5.535788 -0.000117 0.000001 0.000005 -0.000000 -0.000000 -0.000000 
-0.009506 113.902100 1.183577 -0.563349 -0.332211 -0.250340 0.389135 -0.143547 0.241549 -1.758987 -0.152911 0.185722 0.000000 0.000000 0.000000 -1.758853 -0.144485 0.191302 -0.234933 -0.223743 -0.429562 4.682464 -2.228106 3.016739 0.000000 -0.000000 0.000000 0.994575 -13.331120 -11.067194 0.000000 0.000000 0.000000 16.711241 -19.428798 -67.559382 -0.000000 -17.694307 -0.000005 -41.232831 6.340755 3.993494 -5.917881 16.359053 4.033978 -3.203478 11.997065 3.444686 -3.261094 13.950627 3.246348 0.000001 0.000000 -0.000000 0.260631 1.880086 -15.783541 0.260636 1.880094 -15.783599 0.260630 1.880085 -15.783498 -0.000000 -0.000000 -0.000002 0.523427 2.637840 -22.443078 0.524901 2.641405 -22.475103 0.524162 2.639623 -22.459090 -0.000000 0.000000 0.000001 0.898044 3.405134 -29.540975 0.898046 3.405137 -29.540951 0.898044 3.405137 -29.540975 0.000000 0.000001 0.000000 2.843607 6.562538 -31.481875 1.050196 -0.422461 -32.253635 1.038113 3.640774 -31.820082 -0.000000 0.000000 0.000000 1.655695 9.081051 10.518684 0.000000 0.000000 0.000000 6.559960 25.463645 64.487313 0.000005 12.345260 -0.000001 -21.449287 -14.196719 -3.323723 7.843965 -10.746965 2.716257 0.430921 -17.559397 -11.584007 6.895782 -19.300989 -4.640266 0.000003 0.000003 0.000003 0.528293 -2.663086 22.437110 0.528298 -2.663081 22.437130 0.528293 -2.663087 22.437118 0.000000 -0.000001 -0.000002 1.160563 -3.851144 33.530106 1.160566 -3.851153 33.530085 1.160562 -3.851147 33.530095 -0.000000 -0.000001 -0.000000 1.843401 -4.719922 42.648432 1.843398 -4.719916 42.648432 1.843408 -4.719927 42.648432 0.000002 -0.000000 0.000003 1.994909 -4.878714 44.459112 1.994909 -4.878716 44.459132 1.994914 -4.878716 44.459115 -0.000000 0.000001 -0.000006 -12.013576 4.909779 8.199614 24.993704 4.165812 1.595314 -11.748737 1.171993 -9.471549 -0.000051 0.000006 0.000066 -0.000000 -0.000000 -0.000000 -11.411271 1.429902 -2.483307 25.552752 -1.404520 -2.299822 -13.437385 -1.044619 5.538707 -0.000073 0.000000 -0.000004 0.000000 0.000000 -0.000000 
0.045862 113.923210 1.163494 -0.547726 -0.346945 -0.185057 0.417375 -0.115316 0.208040 -1.760835 -0.122205 0.183156 0.000000 0.000000 0.000000 -1.760679 -0.115203 0.187763 -0.200769 -0.240773 -0.429505 4.617259 -2.258966 2.936579 -0.000000 0.000000 0.000000 0.993603 -13.360152 -11.115196 0.000000 0.000000 0.000000 16.611228 -19.504164 -67.520422 0.000006 -17.678770 0.000005 -41.176547 6.072790 4.205069 -5.917882 16.359048 4.033988 -3.203472 11.997065 3.444664 -3.261101 13.950618 3.246358 -0.000001 -0.000004 -0.000001 0.260633 1.880087 -15.783522 0.260635 1.880095 -15.783609 0.260630 1.880083 -15.783486 -0.000000 -0.000000 -0.000001 0.523427 2.637841 -22.443049 0.524900 2.641404 -22.475122 0.524163 2.639623 -22.459083 -0.000000 -0.000000 -0.000000 0.898044 3.405135 -29.540964 0.898045 3.405138 -29.540971 0.898045 3.405136 -29.540961 -0.000000 0.000000 0.000000 2.843605 6.562539 -31.481855 1.050196 -0.422459 -32.253635 1.038112 3.640773 -31.820086 0.000000 0.000000 0.000000 1.663816 9.137674 10.542184 0.000000 0.000000 0.000000 6.627468 25.453465 64.389266 -0.000007 12.280773 0.000002 -21.391203 -14.081760 -3.324084 7.843963 -10.746966 2.716243 0.430951 -17.559388 -11.583958 6.895767 -19.300991 -4.640284 0.000002 0.000003 0.000001 0.528295 -2.663085 22.437141 0.528294 -2.663082 22.437125 0.528295 -2.663086 22.437127 -0.000000 -0.000001 -0.000000 1.160562 -3.851140 33.530136 1.160564 -3.851147 33.530095 1.160565 -3.851144 33.530095 0.000001 0.000002 0.000000 1.843397 -4.719916 42.648446 1.843405 -4.719926 42.648429 1.843407 -4.719921 42.648432 -0.000002 0.000002 0.000001 1.994911 -4.878711 44.459119 1.994907 -4.878711 44.459136 1.994909 -4.878718 44.459115 0.000000 0.000002 -0.000001 -11.998451 4.942307 8.098009 24.930819 4.171258 1.596811 -11.715362 1.170356 -9.467401 -0.000040 0.000002 0.000044 -0.000000 -0.000000 -0.000000 -11.431115 1.436259 -2.624794 25.530892 -1.376420 -2.235754 -13.407993 -1.040898 5.543887 -0.000083 0.000000 -0.000001 0.000000 0.000000 0.000000 
